<?xml version="1.0" standalone="no"?>
<!DOCTYPE svg PUBLIC "-//W3C//DTD SVG 20010904//EN"
 "http://www.w3.org/TR/2001/REC-SVG-20010904/DTD/svg10.dtd">
<svg version="1.0" xmlns="http://www.w3.org/2000/svg"
 width="353.000000pt" height="353.000000pt" viewBox="0 0 353.000000 353.000000"
 preserveAspectRatio="xMidYMid meet">
<metadata>
Created by potrace 1.14, written by Peter Selinger 2001-2017
</metadata>
<g transform="translate(0.000000,353.000000) scale(0.100000,-0.100000)"
fill="#000000" stroke="none">
<path d="M440 2041 c-10 -36 -49 -172 -86 -301 -37 -129 -69 -241 -72 -248 -3
-10 3 -13 23 -10 27 3 29 8 111 297 47 162 82 302 79 311 -12 37 -35 16 -55
-49z"/>
<path d="M170 1898 c-64 -68 -96 -108 -98 -126 -2 -22 16 -46 95 -128 54 -56
104 -100 111 -97 30 12 10 52 -68 134 -44 46 -80 86 -80 89 1 3 37 43 80 89
77 82 98 122 67 134 -7 2 -55 -40 -107 -95z"/>
<path d="M503 1993 c-21 -7 -15 -46 13 -78 14 -16 51 -56 81 -88 l56 -58 -40
-42 c-99 -104 -123 -133 -123 -154 0 -12 6 -23 13 -26 18 -7 206 193 207 220
0 12 -19 43 -44 70 -115 124 -152 160 -163 156z"/>
<path d="M1594 1992 c3 -5 -8 -8 -24 -7 -16 1 -27 -2 -24 -7 3 -4 -1 -8 -9 -8
-24 0 -66 -40 -88 -82 -25 -50 -28 -156 -6 -208 19 -42 62 -90 82 -90 8 0 15
-4 15 -8 0 -4 8 -8 18 -9 95 -10 115 -9 161 7 81 27 118 81 125 183 8 122 -58
216 -155 220 -19 1 -37 6 -41 11 -4 6 -13 4 -22 -3 -11 -9 -16 -10 -16 -2 0 6
-5 11 -11 11 -5 0 -8 -4 -5 -8z m93 -132 c32 -29 40 -100 17 -139 -17 -29 -22
-33 -40 -30 -4 0 -10 -3 -13 -8 -4 -6 -19 -6 -39 -1 -23 6 -36 18 -46 41 -23
56 -5 140 34 151 36 9 68 5 87 -14z"/>
<path d="M787 1976 c-2 -6 5 -33 16 -61 10 -27 39 -108 64 -180 25 -71 49
-137 53 -145 6 -9 25 -15 58 -16 l50 -1 33 116 c18 64 35 122 38 128 4 7 17
-27 30 -75 46 -173 42 -166 95 -167 25 -1 51 3 56 10 6 7 35 84 66 171 31 87
61 172 66 187 6 15 7 31 4 35 -4 3 -32 7 -62 7 l-54 0 -29 -95 c-16 -52 -32
-108 -36 -125 l-7 -30 -13 25 c-7 14 -25 69 -41 122 -30 103 -36 108 -103 99
-5 0 -23 -47 -41 -103 -17 -57 -35 -112 -40 -123 -10 -25 -10 -24 -49 114 -17
57 -32 106 -35 108 -10 10 -116 9 -119 -1z"/>
<path d="M2129 1979 c-7 -4 -12 -53 -14 -130 -2 -147 -8 -166 -47 -160 -5 0
-8 -3 -8 -8 0 -16 -41 1 -55 23 -8 12 -16 33 -18 46 -4 23 -9 25 -65 28 l-62
3 0 -33 c1 -42 23 -103 47 -130 18 -20 61 -43 76 -40 4 1 7 -2 7 -6 0 -10 71
-8 88 2 7 4 12 3 12 -3 0 -14 44 3 87 32 53 36 63 73 67 241 3 134 1 139 -57
141 -26 0 -52 -2 -58 -6z"/>
<path d="M2268 1982 c-11 -2 -14 -13 -12 -40 2 -20 3 -42 3 -48 1 -12 51 -26
51 -14 0 11 60 -2 61 -14 1 -6 2 -74 2 -151 l2 -140 60 0 60 0 3 153 3 152 60
0 60 0 -3 52 -3 52 -166 0 c-91 1 -172 0 -181 -2z"/>
<path d="M2649 1980 c-3 -12 -5 -386 -2 -395 2 -7 66 -10 176 -9 94 1 174 2
177 3 3 0 6 23 7 50 l1 48 -102 1 c-55 0 -109 1 -118 1 -13 1 -18 9 -18 32 0
27 3 30 28 29 15 -1 57 -2 93 -1 l66 1 -1 40 0 40 -93 0 -93 0 0 31 0 31 80
-4 c44 -2 80 0 80 3 0 3 14 4 30 1 l30 -4 0 53 0 54 -170 0 c-94 0 -171 -2
-171 -5z"/>
<path d="M3058 1982 c-16 -3 -18 -21 -18 -205 l0 -202 63 0 62 0 3 35 c4 36
45 90 68 90 14 0 34 -19 94 -86 35 -39 36 -39 108 -39 39 0 73 3 74 7 4 8 -23
37 -110 122 -40 37 -72 74 -72 80 0 7 19 30 43 50 78 70 147 138 147 144 0 4
-34 7 -76 6 l-75 0 -92 -86 c-51 -47 -96 -85 -101 -84 -5 0 -9 38 -8 84 0 45
-3 83 -6 83 -19 3 -89 4 -104 1z"/>
</g>
</svg>
